<svg width="300" height="50" xmlns="http://www.w3.org/2000/svg" fill="none">
 <g>
  <title>Layer 1</title>
  <path d="m10.9027,27.8464l-3.04807,0l0,-18.17114l2.22747,0c6.3306,0 9.2614,4.68934 9.2614,9.14424c0,4.4548 -2.9308,9.0269 -8.4408,9.0269zm-0.8206,-25.67407l-10.0821,0l0,44.31417l7.85463,0l0,-11.0199l3.28257,0c9.9648,0 15.8265,-8.4408 15.8265,-16.5299c0.1172,-8.4408 -5.7445,-16.76437 -16.8816,-16.76437z" fill="#ffffff" id="svg_1"/>
  <path d="m58.0305,29.136c0,4.8066 -1.6413,10.551 -9.2615,10.551c-5.9789,0 -9.2614,-3.7515 -9.2614,-10.551l0,-26.96367l-7.9719,0l0,27.31537c0,10.551 6.9168,17.7022 17.2333,17.7022c10.3166,0 17.1161,-7.1512 17.1161,-17.7022l0,-27.31537l-7.9719,0l0.1173,26.96367z" fill="#ffffff" id="svg_2"/>
  <path d="m92.8488,38.8664l-13.5991,0l0,-36.69407l-7.8546,0l0,44.31417l21.4537,0l0,-7.6201l0,0z" fill="#ffffff" id="svg_3"/>
  <path d="m117.585,38.8664l-13.599,0l0,-36.69407l-7.8547,0l0,44.31417l21.4537,0l0,-7.6201z" fill="#ffffff" id="svg_4"/>
  <path d="m175.615,38.9836l-4.22,0l0,-11.4889l4.455,0c7.972,0 7.972,4.3377 7.972,5.7445c0,1.4068 0,5.7444 -8.207,5.7444zm-4.337,-29.5428l2.813,0c6.214,0 6.917,3.0481 6.917,5.3927c0,4.4549 -3.517,5.3928 -6.565,5.3928l-3.165,0l0,-10.7855zm20.633,24.0328c0,-5.041 -2.228,-8.7925 -6.565,-10.9027c2.345,-1.9929 3.634,-4.6893 3.634,-7.7374c0,-4.5721 -2.227,-8.32354 -6.096,-10.6682c-2.696,-1.64127 -6.331,-1.87573 -11.02,-1.87573l-8.324,0l0,44.19693l13.717,0c8.089,0 14.654,-5.7444 14.654,-13.0129z" fill="#ffffff" id="svg_5"/>
  <path d="m223.212,9.67526l0,-7.50293l-27.081,0l0,44.31417l27.081,0l0,-7.3857l-19.226,0l0,-11.4888l18.171,0l0,-7.2685l-18.171,0l0,-10.551l19.226,0l0,-0.11724z" fill="#ffffff" id="svg_6"/>
  <path d="m241.149,27.4947l5.275,-13.3646c0,0.1173 5.276,13.3646 5.276,13.3646l-10.551,0zm2.11,-25.32237l-17.937,44.31417l8.558,0l4.455,-11.4888l16.296,0l4.455,11.4888l9.027,0l-18.641,-44.31417l-6.213,0z" fill="#ffffff" id="svg_7"/>
  <path d="m280.539,23.626l-2.696,0l0,-13.95074l2.345,0c6.213,0 9.378,2.22744 9.378,6.68234c0.118,5.9789 -4.806,7.2684 -9.027,7.2684zm13.365,11.6061c-1.29,-2.5791 -2.462,-5.041 -3.283,-6.7995c1.993,-1.1723 3.752,-2.6964 5.041,-4.6893c1.29,-2.1102 1.993,-4.8066 1.993,-7.6202c0,-8.67527 -6.33,-13.95077 -16.998,-13.95077l-10.786,0l0,44.19697l7.855,0l0,-14.7714c0,0 1.993,0 4.689,-0.3517c0.821,1.8757 2.11,4.6893 3.752,7.8546c1.172,2.3447 2.579,4.9238 3.985,7.3857l9.848,0c-1.993,-3.3998 -4.338,-7.6201 -6.096,-11.2544z" fill="#ffffff" id="svg_8"/>
  <path d="m135.287,40.6249c-3.986,0 -7.268,-3.2826 -7.268,-7.2685c0,-2.9308 1.993,-5.3927 4.689,-6.0961l9.262,10.1993c-1.525,1.9929 -3.986,3.1653 -6.683,3.1653zm20.164,-13.0129c0.118,0 0.235,0 0.235,0l0,-7.503c-5.51,0 -10.082,3.8687 -11.372,8.9098l-11.606,-12.7785l-0.117,-0.1172c-0.821,-0.8206 -1.29,-1.993 -1.29,-3.1653c0,-1.1723 0.469,-2.2274 1.29,-3.1653c0.821,-0.82064 1.993,-1.28957 3.048,-1.28957c1.172,0 2.227,0.46893 3.048,1.28957c0.352,0.3517 0.703,0.8206 0.938,1.4068l6.682,-3.39977c-0.586,-1.17233 -1.289,-2.34467 -2.344,-3.28253c-2.345,-2.34467 -5.393,-3.517 -8.324,-3.517c-3.048,0 -6.096,1.17233 -8.324,3.517c-2.344,2.34466 -3.517,5.39273 -3.517,8.4408c0,3.0481 1.173,5.9789 3.4,8.3236c-4.103,2.3446 -6.917,6.7995 -6.917,11.9578c0,8.0891 6.565,14.7713 14.655,14.7713c4.689,0 8.909,-1.9929 11.84,-5.041l3.048,3.3998l10.082,0l-9.261,-10.1993c0,-1.524 0.234,-2.9308 0.586,-4.2204c1.172,-2.4619 2.579,-4.2204 4.22,-4.3376z" fill="#ffffff" id="svg_9"/>
 </g>

</svg>