<?xml version="1.0" ?><!-- Uploaded to: SVG Repo, www.svgrepo.com, Generator: SVG Repo Mixer Tools -->
<svg fill="#000000" width="800px" height="800px" viewBox="0 0 52 52" data-name="Layer 1" id="Layer_1" xmlns="http://www.w3.org/2000/svg"><path d="M26,52A26,26,0,1,1,52,26,26,26,0,0,1,26,52ZM26,4A22,22,0,1,0,48,26,22,22,0,0,0,26,4Z"/><path d="M23,37.6A2,2,0,0,1,21.59,37l-9.2-9.19A2,2,0,0,1,15.22,25l9.19,9.19A2,2,0,0,1,23,37.6Z"/><path d="M23,37.6a2,2,0,0,1-1.41-3.42L36.78,19a2,2,0,0,1,2.83,2.83L24.41,37A2,2,0,0,1,23,37.6Z"/></svg>