<?xml version="1.0" encoding="iso-8859-1"?>
<!-- Uploaded to: SVG Repo, www.svgrepo.com, Generator: SVG Repo Mixer Tools -->
<svg version="1.1" id="Layer_1" xmlns="http://www.w3.org/2000/svg" xmlns:xlink="http://www.w3.org/1999/xlink" 
	 viewBox="0 0 512 512" xml:space="preserve">
<path style="fill:#F95428;" d="M176.001,490.127H98.034c-17.489,0-31.718-14.229-31.718-31.718v-40.008
	c0-5.078,4.117-9.196,9.196-9.196s9.196,4.117,9.196,9.196v40.008c0,7.348,5.978,13.326,13.326,13.326h77.967
	c5.078,0,9.196,4.117,9.196,9.196C185.196,486.01,181.08,490.127,176.001,490.127z"/>
<polyline style="fill:#999999;" points="477.669,295.87 477.669,233.262 444.565,233.262 444.565,295.87 "/>
<path style="fill:#F95428;" d="M512,499.878H410.235V313.57c0-28.102,22.781-50.883,50.883-50.883l0,0
	c28.102,0,50.883,22.781,50.883,50.883V499.878z"/>
<path style="fill:#E54728;" d="M472.152,263.902c-3.554-0.786-7.244-1.214-11.035-1.214l0,0c-28.102,0-50.883,22.781-50.883,50.883
	v186.309h22.07V313.57C432.304,289.26,449.358,268.944,472.152,263.902z"/>
<path style="fill:#71C5F4;" d="M418.09,388.54v111.304H150.803V388.54c0-36.954,26.422-67.741,61.427-74.46
	c4.659-0.907,9.465-1.373,14.394-1.373h115.632c4.929,0,9.747,0.466,14.407,1.373C391.656,320.811,418.09,351.586,418.09,388.54z"/>
<g>
	<rect x="275.244" y="362.749" style="fill:#64B4D8;" width="18.391" height="137.101"/>
	<path style="fill:#64B4D8;" d="M356.663,314.08l-17.656,97.719l-54.561-38.757l-54.573,38.757L212.23,314.08
		c4.659-0.907,9.465-1.373,14.394-1.373h115.632C347.186,312.706,352.004,313.172,356.663,314.08z"/>
	<path style="fill:#64B4D8;" d="M273.347,312.712h-46.721c-41.878,0-75.829,33.949-75.829,75.828v111.305h46.721V388.541
		C197.52,346.662,231.469,312.712,273.347,312.712z"/>
	<rect x="333.483" y="436.903" style="fill:#64B4D8;" width="57.626" height="18.391"/>
	<rect x="177.77" y="436.903" style="fill:#64B4D8;" width="57.626" height="18.391"/>
</g>
<path style="fill:#E0B394;" d="M338.542,191.254V303.99c0,29.878-24.225,54.103-54.103,54.103
	c-29.887,0-54.104-24.225-54.104-54.104V176.542"/>
<path style="fill:#999999;" d="M76.433,322.537c-4.062,0-7.357-3.293-7.357-7.357V200.752l-22.827-22.827
	c-2.873-2.873-2.873-7.531,0-10.403c2.873-2.873,7.532-2.873,10.403,0l24.982,24.981c1.379,1.379,2.154,3.25,2.154,5.202v117.476
	C83.789,319.244,80.495,322.537,76.433,322.537z"/>
<path style="fill:#F7CBA4;" d="M243.057,306.827l-50.33-10.678c-26.596-19.323-40.984-51.277-37.822-84l8.73-90.336
	C169.647,59.596,221.931,12.12,284.438,12.12l0,0c62.507,0,114.791,47.475,120.804,109.693l8.73,90.336
	c3.162,32.723-11.226,64.676-37.822,84l-50.33,10.678C301.144,324.754,267.732,324.754,243.057,306.827z"/>
<path style="fill:#E0B394;" d="M186.225,229.952c-0.846,14.308,3.813,28.384,13.033,39.357l52.603,64.639
	c2.746,3.274,5.861,6.02,9.232,8.215c-6.327-2.207-12.408-5.37-18.036-9.453l-50.331-36.562
	c-26.594-19.323-40.976-51.275-37.813-83.999l8.717-90.338C169.591,60.2,220.915,13.045,282.624,12.15
	c-38.009,0.92-81.048,36.746-83.292,74.902L186.225,229.952z"/>
<path style="fill:#AF7C38;" d="M284.438,12.15c30.983,0,59.453,11.66,81.007,30.995c-21.555,19.335-50.024,30.995-81.008,30.995
	s-59.453-11.66-81.008-30.995C224.985,23.81,253.455,12.15,284.438,12.15z"/>
<polygon style="fill:#666666;" points="384.021,212.836 424.653,212.836 424.653,164.099 384.021,164.099 181.239,164.099 
	140.605,164.099 140.605,212.836 181.239,212.836 "/>
<path style="fill:#999999;" d="M343.249,103.008H222.011c-22.516,0-40.769,18.253-40.769,40.769v119.115
	c0,39.479,32.003,71.482,71.482,71.482h59.812c39.479,0,71.482-32.003,71.482-71.482V143.776
	C384.017,121.26,365.764,103.008,343.249,103.008z"/>
<path style="fill:#808080;" d="M208.428,262.893V143.777c0-22.516,18.253-40.769,40.769-40.769h-27.186
	c-22.516,0-40.769,18.253-40.769,40.769v119.115c0,39.479,32.003,71.482,71.482,71.482h27.186
	C240.431,334.375,208.428,302.372,208.428,262.893z"/>
<rect x="220.695" y="164.184" style="fill:#FFFFFF;" width="123.871" height="39.235"/>
<g>
	<rect x="54.976" y="287.21" style="fill:#F9C573;" width="42.913" height="131.191"/>
	<path style="fill:#F9C573;" d="M9.195,190.815c-2.353,0-4.707-0.897-6.502-2.694c-3.591-3.591-3.591-9.413,0-13.004l8.895-8.895
		c3.591-3.591,9.414-3.591,13.004,0c3.591,3.591,3.591,9.413,0,13.004l-8.895,8.895C13.902,189.918,11.549,190.815,9.195,190.815z"
		/>
	<path style="fill:#F9C573;" d="M51.451,148.559c-2.353,0-4.707-0.898-6.502-2.694c-3.591-3.591-3.591-9.414,0-13.005l8.896-8.896
		c3.591-3.591,9.414-3.59,13.004,0c3.591,3.591,3.591,9.414,0,13.005l-8.896,8.896C56.157,147.662,53.803,148.559,51.451,148.559z"
		/>
	<path style="fill:#F9C573;" d="M18.091,148.559c-2.353,0-4.707-0.898-6.502-2.694l-8.895-8.896c-3.591-3.591-3.591-9.414,0-13.005
		c3.591-3.59,9.414-3.591,13.004,0l8.895,8.896c3.591,3.591,3.591,9.414,0,13.005C22.798,147.662,20.443,148.559,18.091,148.559z"/>
</g>
<polygon style="fill:#E6E6E6;" points="344.565,164.184 344.565,203.419 267.849,203.419 290.728,164.184 "/>
</svg>