<?xml version="1.0" encoding="iso-8859-1"?>
<!-- Uploaded to: SVG Repo, www.svgrepo.com, Generator: SVG Repo Mixer Tools -->
<svg height="800px" width="800px" version="1.1" id="Layer_1" xmlns="http://www.w3.org/2000/svg" xmlns:xlink="http://www.w3.org/1999/xlink" 
	 viewBox="0 0 511.983 511.983" xml:space="preserve">
<path style="fill:#ED5564;" d="M458.641,170.754c-5.891,0-10.656-4.773-10.656-10.664v-21.335c0-5.89,4.766-10.664,10.656-10.664
	c5.906,0,10.672,4.773,10.672,10.664v21.335C469.313,165.981,464.548,170.754,458.641,170.754z"/>
<g>
	<path style="fill:#434A54;" d="M287.992,362.66c-5.891,0-10.671-4.78-10.671-10.671s4.78-10.656,10.671-10.656
		c51.92,0,82.199-3.359,101.262-11.203c18.984-7.812,26.733-20.03,26.733-42.138c0-5.891,4.781-10.656,10.656-10.656
		c5.904,0,10.67,4.766,10.67,10.656c0,30.561-13.061,50.794-39.935,61.856C375.301,358.942,343.599,362.66,287.992,362.66z"/>
	<path style="fill:#434A54;" d="M426.643,127.998c-5.875,0-10.656-4.773-10.656-10.664V53.337c0-3.242,1.469-6.305,4-8.336
		l53.326-42.662c4.608-3.68,11.312-2.938,14.999,1.664c3.672,4.601,2.938,11.312-1.672,14.992l-49.327,39.467v58.872
		C437.313,123.225,432.548,127.998,426.643,127.998z"/>
</g>
<path style="fill:#FFCE54;" d="M447.985,106.757h-42.669c-5.891,0-10.672,4.781-10.672,10.671v160.001
	c0,17.641,14.359,31.998,31.999,31.998c17.654,0,31.998-14.357,31.998-31.998V117.428
	C458.641,111.538,453.876,106.757,447.985,106.757z"/>
<path style="fill:#F6BB42;" d="M394.644,277.43L394.644,277.43c0,17.641,14.359,31.998,31.999,31.998
	c17.654,0,31.998-14.357,31.998-31.998l0,0H394.644z"/>
<path style="fill:#434A54;" d="M181.331,362.66h-42.67c-5.875,0-10.656-4.78-10.656-10.671s4.781-10.656,10.656-10.656h42.67
	c5.891,0,10.672,4.766,10.672,10.656S187.221,362.66,181.331,362.66z"/>
<g>
	<path style="fill:#AAB2BC;" d="M85.335,191.995c-5.89,0-10.671-4.773-10.671-10.664v-42.67c0-5.89,4.781-10.664,10.671-10.664
		c5.891,0,10.672,4.773,10.672,10.664v42.67C96.007,187.222,91.225,191.995,85.335,191.995z"/>
	<path style="fill:#AAB2BC;" d="M234.656,191.995c-5.875,0-10.655-4.773-10.655-10.664v-42.67c0-5.89,4.781-10.664,10.655-10.664
		c5.906,0,10.672,4.773,10.672,10.664v42.67C245.329,187.222,240.563,191.995,234.656,191.995z"/>
</g>
<path style="fill:#ED5564;" d="M85.335,170.66c-35.28,0-63.998,28.71-63.998,63.997v266.654c0,5.906,4.781,10.672,10.672,10.672
	h106.652c5.906,0,10.671-4.766,10.671-10.672V234.658C149.331,199.37,120.63,170.66,85.335,170.66z"/>
<path style="fill:#CCD1D9;" d="M106.661,149.333H64.007c-5.89,0-10.671-4.781-10.671-10.672c0-5.89,4.781-10.664,10.671-10.664
	h42.655c5.906,0,10.671,4.773,10.671,10.664C117.333,144.552,112.569,149.333,106.661,149.333z"/>
<path style="fill:#5D9CEC;" d="M234.656,170.66c-35.28,0-63.982,28.71-63.982,63.997v266.654c0,5.906,4.766,10.672,10.656,10.672
	h106.661c5.891,0,10.655-4.766,10.655-10.672V234.658C298.647,199.37,269.954,170.66,234.656,170.66z"/>
<g>
	<path style="opacity:0.2;fill:#FFFFFF;enable-background:new    ;" d="M234.656,170.66c-3.625,0-7.187,0.312-10.655,0.898
		c30.217,5.093,53.319,31.444,53.319,63.099v266.654c0,5.906-4.766,10.672-10.664,10.672h21.335c5.891,0,10.655-4.766,10.655-10.672
		V234.658C298.647,199.37,269.954,170.66,234.656,170.66z"/>
	<path style="opacity:0.2;fill:#FFFFFF;enable-background:new    ;" d="M85.335,170.66c-3.625,0-7.187,0.312-10.671,0.898
		c30.233,5.093,53.342,31.444,53.342,63.099v266.654c0,5.906-4.781,10.672-10.672,10.672h21.343c5.891,0,10.656-4.766,10.656-10.672
		V234.658C149.331,199.37,120.63,170.66,85.335,170.66z"/>
</g>
<path style="fill:#CCD1D9;" d="M255.999,149.333h-42.67c-5.891,0-10.672-4.781-10.672-10.672c0-5.89,4.781-10.664,10.672-10.664
	h42.67c5.891,0,10.657,4.773,10.657,10.664C266.657,144.552,261.891,149.333,255.999,149.333z"/>
</svg>