<?xml version="1.0" encoding="iso-8859-1"?>
<!-- Uploaded to: SVG Repo, www.svgrepo.com, Generator: SVG Repo Mixer Tools -->
<svg height="800px" width="800px" version="1.1" id="Layer_1" xmlns="http://www.w3.org/2000/svg" xmlns:xlink="http://www.w3.org/1999/xlink" 
	 viewBox="0 0 511.98 511.98" xml:space="preserve">
<g>
	<path style="fill:#434A54;" d="M458.642,511.98c-5.875,0-10.656-4.766-10.656-10.656v-10.671c0-5.891,4.781-10.672,10.656-10.672
		c5.906,0,10.688,4.781,10.688,10.672v10.671C469.33,507.215,464.549,511.98,458.642,511.98z"/>
	<path style="fill:#434A54;" d="M202.66,511.98c-5.89,0-10.664-4.766-10.664-10.656v-10.671c0-5.891,4.773-10.672,10.664-10.672
		s10.672,4.781,10.672,10.672v10.671C213.332,507.215,208.551,511.98,202.66,511.98z"/>
</g>
<path style="fill:#ED5564;" d="M479.985,149.33H181.332c-5.89,0-10.671,4.773-10.671,10.664v330.66
	c0,5.89,4.781,10.671,10.671,10.671h298.653c5.891,0,10.656-4.781,10.656-10.671v-330.66
	C490.641,154.103,485.876,149.33,479.985,149.33z"/>
<path style="fill:#FFCE54;" d="M479.985,149.33H181.332c-5.89,0-10.671,4.773-10.671,10.664V287.99h319.98V159.993
	C490.641,154.103,485.876,149.33,479.985,149.33z"/>
<path style="fill:#ED5564;" d="M85.336,191.992c-5.89,0-10.671-4.773-10.671-10.664v-21.335c0-5.89,4.781-10.664,10.671-10.664
	c5.891,0,10.664,4.773,10.664,10.664v21.335C96,187.219,91.227,191.992,85.336,191.992z"/>
<path style="fill:#434A54;" d="M53.338,149.33c-5.89,0-10.671-4.781-10.671-10.672V74.66c0-3.109,1.359-6.07,3.727-8.093
	L121.053,2.57c4.477-3.835,11.21-3.32,15.046,1.156c3.828,4.468,3.312,11.203-1.156,15.039L64.001,79.567v59.091
	C64.001,144.549,59.228,149.33,53.338,149.33z"/>
<g>
	<path style="fill:#DA4453;" d="M437.33,383.985H319.991c-5.891,0-10.655-4.766-10.655-10.656c0-5.906,4.765-10.672,10.655-10.672
		H437.33c5.875,0,10.656,4.766,10.656,10.672C447.986,379.219,443.205,383.985,437.33,383.985z"/>
	<path style="fill:#DA4453;" d="M437.33,341.33H319.991c-5.891,0-10.655-4.781-10.655-10.672s4.765-10.671,10.655-10.671H437.33
		c5.875,0,10.656,4.78,10.656,10.671S443.205,341.33,437.33,341.33z"/>
</g>
<path style="fill:#656D78;" d="M266.658,223.991c0,11.78-9.547,21.334-21.328,21.334c-11.781,0-21.335-9.555-21.335-21.334
	c0-11.781,9.554-21.336,21.335-21.336C257.111,202.656,266.658,212.21,266.658,223.991z"/>
<path style="fill:#434A54;" d="M245.33,255.99c-17.648,0-31.999-14.359-31.999-31.999c0-17.648,14.351-32,31.999-32
	c17.64,0,32.007,14.351,32.007,32C277.338,241.631,262.97,255.99,245.33,255.99z M245.33,213.327
	c-5.883,0-10.672,4.781-10.672,10.664c0,5.882,4.789,10.663,10.672,10.663c5.875,0,10.664-4.781,10.664-10.663
	C255.994,218.109,251.205,213.327,245.33,213.327z"/>
<path style="fill:#656D78;" d="M351.99,223.991c0,11.78-9.562,21.334-21.343,21.334s-21.312-9.555-21.312-21.334
	c0-11.781,9.53-21.336,21.312-21.336S351.99,212.21,351.99,223.991z"/>
<path style="fill:#434A54;" d="M330.647,255.99c-17.624,0-31.999-14.359-31.999-31.999c0-17.648,14.375-32,31.999-32
	c17.655,0,31.998,14.351,31.998,32C362.645,241.631,348.302,255.99,330.647,255.99z M330.647,213.327
	c-5.875,0-10.656,4.781-10.656,10.664c0,5.882,4.781,10.663,10.656,10.663c5.891,0,10.688-4.781,10.688-10.663
	C341.335,218.109,336.538,213.327,330.647,213.327z"/>
<path style="fill:#656D78;" d="M437.33,223.991c0,11.78-9.562,21.334-21.342,21.334s-21.343-9.555-21.343-21.334
	c0-11.781,9.562-21.336,21.343-21.336C427.767,202.656,437.33,212.21,437.33,223.991z"/>
<path style="fill:#434A54;" d="M415.988,255.99c-17.64,0-31.999-14.359-31.999-31.999c0-17.648,14.359-32,31.999-32
	c17.654,0,31.998,14.351,31.998,32C447.986,241.631,433.642,255.99,415.988,255.99z M415.988,213.327
	c-5.874,0-10.655,4.781-10.655,10.664c0,5.882,4.781,10.663,10.655,10.663c5.875,0,10.656-4.781,10.656-10.663
	C426.644,218.109,421.863,213.327,415.988,213.327z"/>
<g>
	<path style="fill:#FFCE54;" d="M362.645,426.655H351.99v-10.671c0-5.891-4.781-10.656-10.655-10.656
		c-5.906,0-10.688,4.766-10.688,10.656v10.671h-10.656c-5.891,0-10.655,4.765-10.655,10.671c0,5.891,4.765,10.656,10.655,10.656
		h10.656v10.672c0,5.89,4.781,10.671,10.688,10.671c5.874,0,10.655-4.781,10.655-10.671v-10.672h10.655
		c5.906,0,10.688-4.766,10.688-10.656C373.333,431.42,368.552,426.655,362.645,426.655z"/>
	<path style="fill:#FFCE54;" d="M437.33,426.655h-42.685c-5.875,0-10.656,4.765-10.656,10.671c0,5.891,4.781,10.656,10.656,10.656
		h42.685c5.875,0,10.656-4.766,10.656-10.656C447.986,431.42,443.205,426.655,437.33,426.655z"/>
	<path style="fill:#FFCE54;" d="M74.665,127.994H32.003c-5.891,0-10.664,4.773-10.664,10.664V298.66
		c0,17.64,14.351,31.998,31.999,31.998c17.64,0,31.999-14.358,31.999-31.998V138.658C85.336,132.768,80.555,127.994,74.665,127.994z
		"/>
</g>
<path style="fill:#434A54;" d="M245.33,373.329c-11.766,0-21.335,9.562-21.335,21.327c0,11.766,9.569,21.328,21.335,21.328
	c11.757,0,21.328-9.562,21.328-21.328C266.658,382.891,257.088,373.329,245.33,373.329z"/>
<path style="fill:#656D78;" d="M167.724,418.203c-4.898,0-9.75-0.203-14.539-0.625c-25.765-2.219-49.428-10.297-68.427-23.359
	c-26.749-18.39-42.092-45.436-42.092-74.231c0-5.891,4.781-10.655,10.671-10.655c5.891,0,10.664,4.765,10.664,10.655
	c0,21.968,11.664,42.092,32.843,56.654c15.96,10.969,36.076,17.78,58.177,19.687c24.304,2.094,50.521-1.922,75.817-11.624
	c5.5-2.125,11.672,0.625,13.781,6.125c2.109,5.499-0.633,11.671-6.133,13.78C215.12,413.578,190.934,418.203,167.724,418.203z"/>
<path style="fill:#F6BB42;" d="M21.339,298.66L21.339,298.66c0,17.64,14.351,31.998,31.999,31.998
	c17.64,0,31.999-14.358,31.999-31.998l0,0H21.339z"/>
<path style="opacity:0.2;fill:#FFFFFF;enable-background:new    ;" d="M479.985,149.33h-21.343c5.906,0,10.688,4.773,10.688,10.664
	v330.66c0,5.89-4.781,10.671-10.688,10.671h21.343c5.891,0,10.656-4.781,10.656-10.671v-330.66
	C490.641,154.103,485.876,149.33,479.985,149.33z"/>
</svg>